<svg width="153" height="43" viewBox="0 0 153 43" fill="none" xmlns="http://www.w3.org/2000/svg">
<path d="M18 19C18 19.7956 17.6839 20.5587 17.1213 21.1213C16.5587 21.6839 15.7956 22 15 22C14.2044 22 13.4413 21.6839 12.8787 21.1213C12.3161 20.5587 12 19.7956 12 19V12M23 12C22.7388 9.26357 21.467 6.72275 19.433 4.87366C17.399 3.02458 14.7489 2 12 2C9.25114 2 6.60096 3.02458 4.56697 4.87366C2.53297 6.72275 1.2612 9.26357 1 12H23Z" stroke="#3AA9E9" stroke-width="2" stroke-linecap="round" stroke-linejoin="round"/>
<path d="M31.8 34V8.62H36.66V34H31.8ZM46.1767 34.432C44.6887 34.432 43.4287 34.12 42.3967 33.496C41.3647 32.872 40.5727 31.948 40.0207 30.724C39.4687 29.476 39.1927 27.952 39.1927 26.152V16.144H44.0527V25.72C44.0527 27.208 44.3527 28.348 44.9527 29.14C45.5527 29.932 46.5007 30.328 47.7967 30.328C48.6367 30.328 49.3687 30.136 49.9927 29.752C50.6407 29.344 51.1447 28.768 51.5047 28.024C51.8647 27.28 52.0447 26.392 52.0447 25.36V16.144H56.9047V34H52.7287L52.3327 31.12H52.2247C51.6727 32.128 50.8927 32.932 49.8847 33.532C48.8767 34.132 47.6407 34.432 46.1767 34.432ZM59.5363 34V16.144H63.7843L64.2163 18.988H64.3243C64.8763 17.908 65.6323 17.092 66.5923 16.54C67.5763 15.988 68.7163 15.712 70.0123 15.712C70.9003 15.712 71.7163 15.832 72.4603 16.072C73.2043 16.312 73.8643 16.684 74.4403 17.188C75.0163 17.692 75.4963 18.34 75.8803 19.132H75.9883C76.6603 18.052 77.5003 17.212 78.5083 16.612C79.5403 16.012 80.7883 15.712 82.2523 15.712C83.6923 15.712 84.9163 16.036 85.9243 16.684C86.9563 17.308 87.7483 18.232 88.3003 19.456C88.8523 20.68 89.1283 22.192 89.1283 23.992V34H84.3043V24.424C84.3043 22.936 84.0163 21.796 83.4403 21.004C82.8643 20.212 81.9523 19.816 80.7043 19.816C79.9123 19.816 79.2163 19.996 78.6163 20.356C78.0403 20.716 77.5843 21.244 77.2483 21.94C76.9123 22.636 76.7443 23.5 76.7443 24.532V34H71.9203V24.424C71.9203 22.936 71.6323 21.796 71.0563 21.004C70.4803 20.212 69.5683 19.816 68.3203 19.816C67.6003 19.816 66.9403 20.02 66.3403 20.428C65.7403 20.812 65.2603 21.376 64.9003 22.12C64.5643 22.84 64.3963 23.728 64.3963 24.784V34H59.5363ZM91.9796 34V16.144H96.8396V34H91.9796ZM94.4276 13.804C93.5396 13.804 92.8076 13.54 92.2316 13.012C91.6796 12.484 91.4036 11.836 91.4036 11.068C91.4036 10.276 91.6796 9.616 92.2316 9.088C92.8076 8.56 93.5396 8.296 94.4276 8.296C95.3156 8.296 96.0356 8.56 96.5876 9.088C97.1636 9.616 97.4516 10.276 97.4516 11.068C97.4516 11.836 97.1636 12.484 96.5876 13.012C96.0356 13.54 95.3156 13.804 94.4276 13.804ZM99.9323 34V16.144H104.108L104.504 19.06H104.612C105.188 18.028 105.98 17.212 106.988 16.612C107.996 16.012 109.232 15.712 110.696 15.712C112.184 15.712 113.444 16.036 114.476 16.684C115.508 17.308 116.288 18.232 116.816 19.456C117.368 20.68 117.644 22.192 117.644 23.992V34H112.82V24.424C112.82 22.936 112.52 21.796 111.92 21.004C111.32 20.212 110.36 19.816 109.04 19.816C108.224 19.816 107.492 20.02 106.844 20.428C106.196 20.812 105.692 21.376 105.332 22.12C104.972 22.84 104.792 23.728 104.792 24.784V34H99.9323ZM128.196 34C126.924 34 125.808 33.808 124.848 33.424C123.912 33.016 123.18 32.356 122.652 31.444C122.124 30.508 121.86 29.236 121.86 27.628V20.068H118.8V16.144H121.86L122.4 11.284H126.72V16.144H131.472V20.068H126.72V27.7C126.72 28.54 126.9 29.128 127.26 29.464C127.62 29.776 128.232 29.932 129.096 29.932H131.364V34H128.196ZM139.713 34.432C138.225 34.432 136.965 34.12 135.933 33.496C134.901 32.872 134.109 31.948 133.557 30.724C133.005 29.476 132.729 27.952 132.729 26.152V16.144H137.589V25.72C137.589 27.208 137.889 28.348 138.489 29.14C139.089 29.932 140.037 30.328 141.333 30.328C142.173 30.328 142.905 30.136 143.529 29.752C144.177 29.344 144.681 28.768 145.041 28.024C145.401 27.28 145.581 26.392 145.581 25.36V16.144H150.441V34H146.265L145.869 31.12H145.761C145.209 32.128 144.429 32.932 143.421 33.532C142.413 34.132 141.177 34.432 139.713 34.432Z" fill="#050509"/>
</svg>
